<svg width="24" height="24" viewBox="0 0 24 24" fill="none" xmlns="http://www.w3.org/2000/svg">
<path fill-rule="evenodd" clip-rule="evenodd" d="M12 23C5.92487 23 1 18.0751 1 12C1 5.92487 5.92487 1 12 1C18.0751 1 23 5.92487 23 12C23 18.0751 18.0751 23 12 23ZM19.3995 17.1248C20.4087 15.6704 21.0001 13.9043 21.0001 12C21.0001 7.02944 16.9706 3 12.0001 3C7.02952 3 3.00008 7.02944 3.00008 12C3.00008 13.9042 3.59143 15.6702 4.60051 17.1245C5.726 15.638 8.37061 15 11.9999 15C15.6294 15 18.2741 15.6381 19.3995 17.1248ZM17.9646 18.7399C17.6721 17.6874 15.5694 17 11.9999 17C8.43067 17 6.32807 17.6873 6.03527 18.7397C7.62327 20.1461 9.71196 21 12.0001 21C14.2881 21 16.3767 20.1462 17.9646 18.7399ZM12 6C9.57915 6 8.00005 7.75576 8.00005 10C8.00005 13.4274 9.76091 15 12 15C14.2181 15 16 13.4796 16 10.2C16 7.92158 14.4142 6 12 6ZM10.0001 10C10.0001 12.2693 10.8183 13 12.0001 13C13.1778 13 14.0001 12.2984 14.0001 10.2C14.0001 8.95042 13.2158 8 12.0001 8C10.7339 8 10.0001 8.81582 10.0001 10Z" fill="black"/>
</svg>
