<svg width="24" height="24" viewBox="0 0 24 24" fill="none" xmlns="http://www.w3.org/2000/svg">
<path fill-rule="evenodd" clip-rule="evenodd" d="M13.3429 6.54359L14.7679 7.94693L8.44974 14.3627C8.1327 14.6862 8.1327 15.207 8.44974 15.5306C8.75058 15.8377 9.25315 15.8363 9.55079 15.5289L16.5022 8.46732C17.517 7.43169 17.517 5.76848 16.5022 4.73285C15.5339 3.74475 13.8208 3.76673 12.8718 4.73473L5.28454 12.4369C3.57154 14.1843 3.57154 16.9903 5.28454 18.7377C6.94795 20.4345 9.80544 20.4069 11.4429 18.7361L20.2919 9.74889L21.717 11.1521L12.8696 20.1377C10.4557 22.6007 6.31008 22.6408 3.85633 20.1378C1.38094 17.6126 1.38094 13.5619 3.85804 11.0351L11.4453 3.33292C13.1687 1.57485 16.1701 1.53635 17.9307 3.33306C19.7075 5.14633 19.7075 8.05384 17.9291 9.86874L10.9819 16.9261C9.90719 18.036 8.10934 18.041 7.02113 16.9303C5.94224 15.8291 5.94224 14.0642 7.02293 12.9612L13.3429 6.54359Z" fill="black"/>
</svg>
