<svg width="48" height="48" viewBox="0 0 48 48" fill="none" xmlns="http://www.w3.org/2000/svg">
<g opacity="0.5">
<path opacity="0.5" d="M24 48C37.2548 48 48 37.2548 48 24C48 10.7452 37.2548 0 24 0C10.7452 0 0 10.7452 0 24C0 37.2548 10.7452 48 24 48Z" fill="url(#paint0_linear)"/>
</g>
<path d="M24.0662 47.4285C28.657 47.436 33.1484 46.0921 36.9805 43.5641C36.1149 38.8341 32.82 38.5628 32.82 38.5628H14.6559C14.6559 38.5628 11.5495 38.8176 10.5762 43.1707C14.5254 45.9486 19.2378 47.4359 24.0662 47.4285Z" fill="#6C63FF"/>
<path d="M23.82 33.7665C29.5718 33.7665 34.2347 29.1037 34.2347 23.3518C34.2347 17.5999 29.5718 12.9371 23.82 12.9371C18.0681 12.9371 13.4053 17.5999 13.4053 23.3518C13.4053 29.1037 18.0681 33.7665 23.82 33.7665Z" fill="#333333"/>
<path opacity="0.1" d="M20.1602 32.7973H27.427V38.6104C27.427 39.5738 27.0443 40.4977 26.3631 41.1789C25.6819 41.8601 24.758 42.2428 23.7946 42.2428C22.8313 42.2428 21.9073 41.8601 21.2261 41.1789C20.5449 40.4977 20.1622 39.5738 20.1622 38.6104V32.7973H20.1602Z" fill="black"/>
<path d="M20.8538 32.5281H26.7332C26.9172 32.5281 27.0936 32.6012 27.2237 32.7313C27.3538 32.8614 27.4269 33.0378 27.4269 33.2218V38.3412C27.4269 39.3045 27.0442 40.2285 26.363 40.9097C25.6818 41.5909 24.7579 41.9736 23.7945 41.9736C22.8311 41.9736 21.9072 41.5909 21.226 40.9097C20.5448 40.2285 20.1621 39.3045 20.1621 38.3412V33.2218C20.1621 33.0382 20.2349 32.862 20.3646 32.732C20.4942 32.602 20.6702 32.5286 20.8538 32.5281Z" fill="#FDB797"/>
<path opacity="0.1" d="M20.1748 35.5413C22.5168 36.4166 25.0948 36.424 27.4417 35.562V34.6694H20.1748V35.5413Z" fill="black"/>
<path d="M23.82 36.028C29.5718 36.028 34.2347 31.3652 34.2347 25.6133C34.2347 19.8614 29.5718 15.1986 23.82 15.1986C18.0681 15.1986 13.4053 19.8614 13.4053 25.6133C13.4053 31.3652 18.0681 36.028 23.82 36.028Z" fill="#FDB797"/>
<path d="M17.5096 21.3182C17.6318 20.8688 17.785 20.3738 18.1889 20.1398C18.5078 19.9534 18.9033 19.9824 19.272 20.001C22.1506 20.1584 25.0043 19.5019 27.8042 18.8165C29.405 18.4251 31.1177 17.9488 32.1531 16.6586C33.1886 15.3684 31.8384 11.3135 30.2624 10.8351C29.2269 10.5183 28.0258 11.1085 27.0442 10.6446C26.6072 10.4375 26.2862 10.0502 25.9093 9.74787C25.1368 9.12659 24.1449 8.87601 23.184 8.63992C22.0615 8.36242 20.8479 8.09113 19.7814 8.53638C18.953 8.88015 18.3483 9.60705 17.5635 10.0378C16.0703 10.8662 14.25 10.481 12.5394 10.4768C11.9616 10.4768 11.272 10.5928 11.0421 11.123C10.8868 11.4833 11.011 11.8934 11.0276 12.2848C11.0773 13.5273 10.0522 14.4944 9.19276 15.3912C8.33332 16.2879 7.52152 17.5677 8.0641 18.6819C8.2712 19.1064 8.65018 19.4274 8.86555 19.8478C9.23625 20.5768 9.04987 21.4569 9.18448 22.2625C9.31925 22.8738 9.54768 23.4606 9.86167 24.0021C10.4995 25.2446 13.7032 31.9337 15.1757 30.2335C15.8881 29.4051 16.004 27.0111 16.2919 25.9343C16.6895 24.3866 17.0954 22.8479 17.5096 21.3182Z" fill="#333333"/>
<path d="M16.4096 27.0505C16.9449 27.0505 17.3788 26.2374 17.3788 25.2343C17.3788 24.2313 16.9449 23.4181 16.4096 23.4181C15.8744 23.4181 15.4404 24.2313 15.4404 25.2343C15.4404 26.2374 15.8744 27.0505 16.4096 27.0505Z" fill="#FDB797"/>
<defs>
<linearGradient id="paint0_linear" x1="24" y1="48" x2="24" y2="0.00207129" gradientUnits="userSpaceOnUse">
<stop stop-color="#808080" stop-opacity="0.25"/>
<stop offset="0.54" stop-color="#808080" stop-opacity="0.12"/>
<stop offset="1" stop-color="#808080" stop-opacity="0.1"/>
</linearGradient>
</defs>
</svg>
